<?xml version="1.0" encoding="UTF-8" standalone="no"?>
<!-- Generator: Adobe Illustrator 15.0.0, SVG Export Plug-In . SVG Version: 6.00 Build 0)  -->

<svg
   xmlns:dc="http://purl.org/dc/elements/1.1/"
   xmlns:cc="http://creativecommons.org/ns#"
   xmlns:rdf="http://www.w3.org/1999/02/22-rdf-syntax-ns#"
   xmlns:svg="http://www.w3.org/2000/svg"
   xmlns="http://www.w3.org/2000/svg"
   xmlns:sodipodi="http://sodipodi.sourceforge.net/DTD/sodipodi-0.dtd"
   xmlns:inkscape="http://www.inkscape.org/namespaces/inkscape"
   version="1.1"
   id="Layer_1"
   x="0px"
   y="0px"
   width="718.33698"
   height="293.25607"
   viewBox="93.692 0 718.33699 293.25607"
   enable-background="new 93.692 0 1000.308 300.5"
   xml:space="preserve"
   sodipodi:docname="aops.svg"
   inkscape:version="0.92.4 (unknown)"><metadata
   id="metadata77"><rdf:RDF><cc:Work
       rdf:about=""><dc:format>image/svg+xml</dc:format><dc:type
         rdf:resource="http://purl.org/dc/dcmitype/StillImage" /><dc:title></dc:title></cc:Work></rdf:RDF></metadata><defs
   id="defs75" /><sodipodi:namedview
   pagecolor="#ffffff"
   bordercolor="#666666"
   borderopacity="1"
   objecttolerance="10"
   gridtolerance="10"
   guidetolerance="10"
   inkscape:pageopacity="0"
   inkscape:pageshadow="2"
   inkscape:window-width="1855"
   inkscape:window-height="1056"
   id="namedview73"
   showgrid="false"
   fit-margin-top="0"
   fit-margin-left="0"
   fit-margin-right="0"
   fit-margin-bottom="0"
   inkscape:zoom="0.3169024"
   inkscape:cx="353.68799"
   inkscape:cy="148.43635"
   inkscape:window-x="65"
   inkscape:window-y="24"
   inkscape:window-maximized="1"
   inkscape:current-layer="Layer_1" />
<g
   id="g70"
   transform="translate(-146.466,-5.4302902)">
	<polygon
   stroke-miterlimit="10"
   points="240.658,76.027 368.878,6 497.098,76.027 497.096,224.082 368.877,298.109 240.659,224.082 "
   id="polygon2"
   style="fill:#ffffff;stroke:#ffffff;stroke-miterlimit:10" />
	<g
   id="g58">
		<polygon
   points="368.75,60.904 403.07,41.087 368.75,21.271 334.427,41.087 "
   id="polygon4"
   style="fill:#008445" />
		<polygon
   points="330.614,82.921 364.935,63.105 330.614,43.288 296.293,63.105 "
   id="polygon6"
   style="fill:#008445" />
		<polygon
   points="406.885,82.921 441.207,63.105 406.885,43.288 372.564,63.105 "
   id="polygon8"
   style="fill:#008445" />
		<polygon
   points="445.02,104.939 479.342,85.122 445.02,65.306 410.699,85.122 "
   id="polygon10"
   style="fill:#008445" />
		<polygon
   points="292.479,104.939 326.801,85.122 292.479,65.306 258.158,85.122 "
   id="polygon12"
   style="fill:#008445" />
		<polygon
   points="290.574,196.309 256.251,176.494 256.251,216.127 290.572,235.941 "
   id="polygon14"
   style="fill:#c3dd89" />
		<polygon
   points="328.711,218.326 294.387,198.512 294.387,238.143 328.709,257.959 "
   id="polygon16"
   style="fill:#c3dd89" />
		<polygon
   points="290.574,152.275 256.253,132.46 256.251,172.092 290.574,191.904 "
   id="polygon18"
   style="fill:#c3dd89" />
		<polygon
   points="290.575,108.239 256.253,88.425 256.253,128.056 290.574,147.869 "
   id="polygon20"
   style="fill:#c3dd89" />
		<polygon
   points="366.845,240.344 332.523,220.529 332.523,260.16 366.844,279.977 "
   id="polygon22"
   style="fill:#c3dd89" />
		<polygon
   points="446.93,196.309 481.251,176.494 481.251,216.127 446.93,235.941 "
   id="polygon24"
   style="fill:#1f3e7c" />
		<polygon
   points="408.794,218.326 443.117,198.512 443.117,238.143 408.796,257.959 "
   id="polygon26"
   style="fill:#1f3e7c" />
		<polygon
   points="446.928,152.275 481.251,132.46 481.251,172.092 446.93,191.904 "
   id="polygon28"
   style="fill:#1f3e7c" />
		<polygon
   points="446.928,108.241 481.251,88.427 481.251,128.056 446.93,147.869 "
   id="polygon30"
   style="fill:#1f3e7c" />
		<polygon
   points="370.658,240.344 404.982,220.529 404.982,260.16 370.66,279.977 "
   id="polygon32"
   style="fill:#1f3e7c" />
		<polygon
   points="368.752,197.41 334.43,217.229 368.752,237.043 403.073,217.229 "
   id="polygon34"
   style="fill:#008445" />
		<polygon
   points="406.886,175.393 372.565,195.211 406.886,215.025 441.208,195.211 "
   id="polygon36"
   style="fill:#008445" />
		<polygon
   points="330.617,175.393 296.296,195.211 330.617,215.025 364.939,195.211 "
   id="polygon38"
   style="fill:#008445" />
		<polygon
   points="408.792,128.056 443.114,147.869 443.114,108.239 408.792,88.425 "
   id="polygon40"
   style="fill:#c3dd89" />
		<polygon
   points="370.656,106.038 404.979,125.855 404.979,86.224 370.657,66.407 "
   id="polygon42"
   style="fill:#c3dd89" />
		<polygon
   points="408.792,172.092 443.114,191.904 443.114,152.275 408.792,132.46 "
   id="polygon44"
   style="fill:#c3dd89" />
		<polygon
   points="328.709,128.056 294.385,147.869 294.385,108.241 328.707,88.427 "
   id="polygon46"
   style="fill:#1f3e7c" />
		<polygon
   points="366.844,106.038 332.521,125.855 332.521,86.224 366.844,66.407 "
   id="polygon48"
   style="fill:#1f3e7c" />
		<polygon
   points="328.709,172.092 294.385,191.904 294.385,152.275 328.707,132.46 "
   id="polygon50"
   style="fill:#1f3e7c" />
		<polygon
   points="370.656,152.277 370.656,191.906 404.977,172.092 404.977,132.46 "
   id="polygon52"
   style="fill:#1f3e7c" />
		<polygon
   points="366.842,152.277 332.521,132.46 332.521,172.092 366.842,191.906 "
   id="polygon54"
   style="fill:#c3dd89" />
		<polygon
   points="368.75,148.975 403.07,129.157 368.75,109.343 334.427,129.157 "
   id="polygon56"
   style="fill:#008445" />
	</g>
	<g
   id="g68">
		<path
   d="m 565.453,86.525 h 25.568 l 54.02,126.938 h -28.992 l -11.523,-28.27 H 551.23 l -11.525,28.27 h -28.27 z m 29.168,74.18 -16.746,-40.87 -16.744,40.87 z"
   id="path60"
   inkscape:connector-curvature="0"
   style="fill:#1f3e7c" />
		<path
   d="m 643.408,165.75 v -0.361 c 0,-27.729 22.324,-50.234 52.396,-50.234 29.891,0 52.033,22.145 52.033,49.875 v 0.359 c 0,27.729 -22.324,50.236 -52.395,50.236 -29.885,0 -52.034,-22.146 -52.034,-49.875 z m 77.424,0 v -0.361 c 0,-14.223 -10.266,-26.647 -25.389,-26.647 -15.668,0 -25.025,12.065 -25.025,26.288 v 0.359 c 0,14.228 10.264,26.646 25.387,26.646 15.666,0 25.027,-12.06 25.027,-26.285 z"
   id="path62"
   inkscape:connector-curvature="0"
   style="fill:#1f3e7c" />
		<path
   d="m 757.014,87.423 h 51.498 c 30.072,0 48.258,17.826 48.258,43.574 v 0.361 c 0,29.167 -22.689,44.292 -50.959,44.292 h -21.063 v 37.813 H 757.016 V 87.423 Z m 49.699,63.561 c 13.865,0 21.965,-8.283 21.965,-19.086 v -0.359 c 0,-12.424 -8.643,-19.086 -22.506,-19.086 h -21.426 v 38.531 z"
   id="path64"
   inkscape:connector-curvature="0"
   style="fill:#1f3e7c" />
		<path
   d="m 858.744,195.098 16.383,-19.625 c 11.344,9.361 23.229,15.305 37.635,15.305 11.342,0 18.182,-4.502 18.182,-11.885 v -0.358 c 0,-7.022 -4.316,-10.625 -25.387,-16.025 -25.389,-6.481 -41.771,-13.504 -41.771,-38.528 v -0.361 c 0,-22.867 18.361,-37.992 44.111,-37.992 18.367,0 34.033,5.76 46.816,16.023 l -14.406,20.889 c -11.162,-7.742 -22.146,-12.426 -32.768,-12.426 -10.625,0 -16.207,4.863 -16.207,10.986 v 0.359 c 0,8.281 5.4,10.982 27.188,16.564 25.566,6.66 39.975,15.842 39.975,37.813 v 0.357 c 0,25.031 -19.086,39.074 -46.275,39.074 -19.085,-0.002 -38.351,-6.666 -53.476,-20.17 z"
   id="path66"
   inkscape:connector-curvature="0"
   style="fill:#1f3e7c" />
	</g>
</g>
</svg>