<?xml version="1.0" encoding="UTF-8" standalone="no"?>
<svg
   xmlns:dc="http://purl.org/dc/elements/1.1/"
   xmlns:cc="http://creativecommons.org/ns#"
   xmlns:rdf="http://www.w3.org/1999/02/22-rdf-syntax-ns#"
   xmlns:svg="http://www.w3.org/2000/svg"
   xmlns="http://www.w3.org/2000/svg"
   xmlns:sodipodi="http://sodipodi.sourceforge.net/DTD/sodipodi-0.dtd"
   xmlns:inkscape="http://www.inkscape.org/namespaces/inkscape"
   width="200px"
   height="200px"
   viewBox="0 0 200 200"
   version="1.1"
   id="svg13"
   sodipodi:docname="bugsee.svg"
   inkscape:version="0.92.4 (unknown)">
  <metadata
     id="metadata17">
    <rdf:RDF>
      <cc:Work
         rdf:about="">
        <dc:format>image/svg+xml</dc:format>
        <dc:type
           rdf:resource="http://purl.org/dc/dcmitype/StillImage" />
      </cc:Work>
    </rdf:RDF>
  </metadata>
  <sodipodi:namedview
     pagecolor="#ffffff"
     bordercolor="#666666"
     borderopacity="1"
     objecttolerance="10"
     gridtolerance="10"
     guidetolerance="10"
     inkscape:pageopacity="0"
     inkscape:pageshadow="2"
     inkscape:window-width="1855"
     inkscape:window-height="1056"
     id="namedview15"
     showgrid="false"
     inkscape:zoom="1.18"
     inkscape:cx="100"
     inkscape:cy="100"
     inkscape:window-x="65"
     inkscape:window-y="24"
     inkscape:window-maximized="1"
     inkscape:current-layer="svg13" />
  <!-- Generator: Sketch 42 (36781) - http://www.bohemiancoding.com/sketch -->
  <title
     id="title2">Logo with text Copy</title>
  <desc
     id="desc4">Created with Sketch.</desc>
  <defs
     id="defs6" />
  <g
     id="Page-3"
     transform="matrix(1.1328384,0,0,1.1328384,-13.40804,-12.18881)"
     style="fill:none;fill-rule:evenodd;stroke:none;stroke-width:1">
    <g
       id="Logo-with-text-Copy">
      <ellipse
         id="Oval-1"
         cx="133"
         cy="55.5"
         rx="14"
         ry="12.5"
         style="fill:#ffffff" />
      <path
         d="m 134.97755,35.686427 c 1.4979,0.615682 2.97417,1.272881 4.42735,1.970155 1.83573,-1.883828 4.33121,-2.955232 6.91634,-3.041605 1.39821,2.230116 1.89882,4.953688 1.31668,7.570917 17.26064,10.784496 30.33139,27.592704 36.23207,47.460573 l -6.41971,-2e-6 C 172.07854,78.10366 160.3299,70.096169 146.70084,70.096169 c -18.70336,0 -33.86544,15.080118 -33.86544,33.682391 0,3.39509 0.50505,6.67287 1.44449,9.76305 h -11.31411 v -10.42219 h -3.356141 v 10.42219 H 89.416566 V 103.11942 H 75.991988 v 10.42219 H 65.795875 v -10.42219 h -3.356144 v 10.42219 H 52.243618 v 0 -10.42219 h -6.712289 v 10.42219 H 18 c 0,-46.505671 37.905189,-84.205967 84.66361,-84.205967 8.29672,0 16.3147,1.186966 23.89165,3.399475 1.10136,-1.628714 2.66016,-2.90563 4.4707,-3.670939 2.11208,1.58658 3.55947,3.959708 3.95159,6.622248 z m -2.1737,27.668427 c 4.67585,0 8.46636,-3.77003 8.46636,-8.420597 0,-4.650567 -3.79051,-8.420597 -8.46636,-8.420597 -4.67584,0 -8.46636,3.77003 -8.46636,8.420597 0,4.650567 3.79052,8.420597 8.46636,8.420597 z m 3.04789,-2.357767 c -1.87033,0 -3.38654,-1.508012 -3.38654,-3.368239 0,-1.860227 1.51621,-3.368239 3.38654,-3.368239 1.87034,0 3.38655,1.508012 3.38655,3.368239 0,1.860227 -1.51621,3.368239 -3.38655,3.368239 z"
         id="Combined-Shape"
         inkscape:connector-curvature="0"
         style="fill:#fb5252" />
      <path
         d="m 18.324219,154 v -32.70312 h 11.208008 c 1.766936,0 3.354159,0.17594 4.761718,0.52783 1.407559,0.35189 2.597977,0.8872 3.571289,1.60595 0.973312,0.71876 1.71826,1.6359 2.234864,2.75147 0.516604,1.11556 0.774902,2.437 0.774902,3.96435 0,1.49741 -0.404293,2.84505 -1.212891,4.04297 -0.808597,1.19793 -1.991528,2.1263 -3.548828,2.78516 0.943364,0.25456 1.76318,0.62516 2.459473,1.11182 0.696293,0.48665 1.272784,1.0594 1.729492,1.71826 0.456708,0.65885 0.797362,1.38508 1.021973,2.17871 0.22461,0.79362 0.336914,1.61718 0.336914,2.4707 0,1.57227 -0.258298,2.95361 -0.774902,4.14404 -0.516605,1.19044 -1.265295,2.1862 -2.246094,2.98731 -0.9808,0.80111 -2.171217,1.40381 -3.571289,1.8081 C 33.668776,153.79785 32.085295,154 30.318359,154 Z m 5.682617,-14.75684 v 10.21973 h 6.311523 c 0.92839,0 1.748207,-0.11979 2.459473,-0.35937 0.711267,-0.23959 1.306476,-0.58024 1.785645,-1.02198 0.479169,-0.44173 0.83854,-0.96956 1.078125,-1.58349 0.239584,-0.61394 0.359375,-1.29525 0.359375,-2.04395 0,-1.61719 -0.426754,-2.88997 -1.280274,-3.81836 -0.85352,-0.92839 -2.238597,-1.39258 -4.155273,-1.39258 z m 0,-4.17773 h 5.570312 c 1.766936,0 3.14827,-0.40055 4.144043,-1.20166 0.995774,-0.80111 1.493653,-1.93538 1.493653,-3.40283 0,-1.6172 -0.460445,-2.78515 -1.381348,-3.50391 -0.920903,-0.71875 -2.354645,-1.07812 -4.301269,-1.07812 h -5.525391 z m 47.257812,-13.76855 v 21.87695 c 0,1.87175 -0.318193,3.51138 -0.954589,4.91894 -0.636397,1.40756 -1.508621,2.58301 -2.6167,3.52637 -1.108078,0.94336 -2.403312,1.65088 -3.885742,2.12256 -1.482429,0.47168 -3.069653,0.70752 -4.761719,0.70752 -1.751961,0 -3.372876,-0.23584 -4.862792,-0.70752 -1.489917,-0.47168 -2.781408,-1.1792 -3.874512,-2.12256 -1.093105,-0.94336 -1.946612,-2.11881 -2.560547,-3.52637 -0.613935,-1.40756 -0.920899,-3.04719 -0.920899,-4.91894 v -21.87695 h 5.660157 v 21.87695 c 0,1.16797 0.153481,2.17496 0.460449,3.02099 0.306968,0.84604 0.744952,1.54606 1.313965,2.1001 0.569013,0.55404 1.257808,0.96208 2.066406,1.22412 0.808598,0.26205 1.714513,0.39307 2.717773,0.39307 1.003261,0 1.91292,-0.13102 2.729004,-0.39307 0.816085,-0.26204 1.50488,-0.67008 2.066407,-1.22412 0.561526,-0.55404 0.995766,-1.25406 1.302734,-2.1001 0.306968,-0.84603 0.460449,-1.85302 0.460449,-3.02099 v -21.87695 z m 31.130862,28.458 c -0.3444,0.44922 -0.82357,0.9471 -1.4375,1.49365 -0.61394,0.54656 -1.403806,1.05567 -2.369631,1.52735 -0.965825,0.47168 -2.126295,0.86849 -3.481445,1.19043 -1.35515,0.32194 -2.946118,0.48291 -4.77295,0.48291 -2.051442,0 -3.934399,-0.35189 -5.648925,-1.05567 -1.714527,-0.70378 -3.185704,-1.72199 -4.413575,-3.05468 -1.22787,-1.33269 -2.182451,-2.97232 -2.863769,-4.91895 -0.681319,-1.94662 -1.021973,-4.17023 -1.021973,-6.6709 v -2.15625 c 0,-2.48569 0.306963,-4.70555 0.920899,-6.65967 0.613935,-1.95411 1.49739,-3.60497 2.65039,-4.95263 1.153001,-1.34766 2.560539,-2.37337 4.222656,-3.07715 1.662118,-0.70378 3.548818,-1.05566 5.660157,-1.05566 1.991546,0 3.728508,0.25829 5.210937,0.7749 1.482429,0.5166 2.732743,1.23909 3.750977,2.16748 1.018234,0.92839 1.819332,2.03271 2.403322,3.31299 0.58398,1.28028 0.9733,2.68407 1.16797,4.21142 h -5.570316 c -0.134766,-0.85352 -0.359373,-1.63964 -0.673828,-2.3584 -0.314454,-0.71875 -0.744951,-1.34016 -1.291504,-1.86425 -0.546552,-0.52409 -1.220373,-0.93587 -2.021484,-1.23536 -0.801111,-0.29947 -1.755691,-0.44921 -2.86377,-0.44921 -1.332688,0 -2.489415,0.24706 -3.470214,0.74121 -0.9808,0.49414 -1.796872,1.21663 -2.448243,2.16748 -0.65137,0.95085 -1.138019,2.11881 -1.459961,3.5039 -0.321941,1.3851 -0.48291,2.9611 -0.48291,4.72803 v 2.20117 c 0,1.79689 0.19466,3.38785 0.583985,4.77295 0.389325,1.3851 0.947099,2.54931 1.67334,3.49268 0.72624,0.94336 1.609695,1.66211 2.65039,2.15625 1.040696,0.49414 2.219883,0.74121 3.537598,0.74121 0.973312,0 1.808102,-0.0636 2.504394,-0.19092 0.696293,-0.12728 1.284015,-0.28825 1.763184,-0.48291 0.479169,-0.19466 0.872232,-0.40804 1.179199,-0.64014 0.306968,-0.23209 0.557779,-0.45296 0.752442,-0.66259 v -6.40137 H 89.99707 v -4.3125 h 12.39844 z m 23.33691,-4.17773 c 0,-0.65886 -0.0973,-1.24658 -0.29199,-1.76319 -0.19466,-0.5166 -0.55029,-0.99202 -1.06689,-1.42627 -0.51661,-0.43424 -1.22787,-0.84977 -2.13379,-1.24658 -0.90593,-0.39681 -2.07015,-0.81233 -3.49268,-1.24658 -1.5573,-0.46419 -2.99478,-0.99576 -4.3125,-1.59473 -1.31771,-0.59896 -2.45198,-1.29524 -3.40283,-2.08886 -0.95085,-0.79363 -1.6958,-1.70703 -2.23486,-2.74024 -0.53907,-1.0332 -0.8086,-2.21614 -0.8086,-3.54883 0,-1.31771 0.28076,-2.53059 0.84229,-3.63867 0.56152,-1.10808 1.35139,-2.0664 2.36962,-2.875 1.01824,-0.8086 2.23861,-1.4375 3.66114,-1.88672 1.42253,-0.44922 2.99478,-0.67382 4.7168,-0.67382 1.8418,0 3.49641,0.26578 4.96386,0.79736 1.46746,0.53158 2.70654,1.25406 3.71729,2.16748 1.01074,0.91342 1.78564,1.97281 2.3247,3.17822 0.53907,1.20541 0.8086,2.48942 0.8086,3.85205 h -5.66016 c 0,-0.79362 -0.12353,-1.52359 -0.3706,-2.18994 -0.24707,-0.66634 -0.62516,-1.24283 -1.13428,-1.72949 -0.50912,-0.48666 -1.15299,-0.86475 -1.93164,-1.13428 -0.77865,-0.26953 -1.69954,-0.40429 -2.7627,-0.40429 -1.00326,0 -1.87174,0.1123 -2.60547,0.33691 -0.73372,0.22461 -1.34391,0.53906 -1.83056,0.94336 -0.48666,0.4043 -0.84603,0.88346 -1.07813,1.4375 -0.23209,0.55404 -0.34814,1.15299 -0.34814,1.79687 0,1.2129 0.57275,2.22363 1.71826,3.03223 1.14551,0.8086 2.89371,1.55729 5.24463,2.24609 1.84181,0.53907 3.43652,1.13802 4.78418,1.79688 1.34766,0.65886 2.46695,1.4038 3.35791,2.23486 0.89095,0.83106 1.55354,1.76692 1.98779,2.80762 0.43425,1.04069 0.65137,2.2124 0.65137,3.51514 0,1.37761 -0.27327,2.61669 -0.81983,3.71728 -0.54655,1.10059 -1.32519,2.03646 -2.33593,2.80762 -1.01075,0.77116 -2.23486,1.36263 -3.67237,1.77441 -1.4375,0.41179 -3.0397,0.61768 -4.80664,0.61768 -1.57227,0 -3.12206,-0.21338 -4.64941,-0.64014 -1.52735,-0.42676 -2.89745,-1.07063 -4.11035,-1.93164 -1.2129,-0.86101 -2.18994,-1.93538 -2.93116,-3.22314 -0.74121,-1.28777 -1.11181,-2.80013 -1.11181,-4.53711 h 5.68262 c 0,1.03321 0.18343,1.9204 0.55029,2.66162 0.36686,0.74121 0.86849,1.34765 1.50488,1.81933 0.6364,0.47169 1.38883,0.81608 2.25733,1.03321 0.86849,0.21712 1.80435,0.32568 2.80761,0.32568 1.97658,0 3.46273,-0.40055 4.4585,-1.20166 0.99577,-0.80111 1.49365,-1.86051 1.49365,-3.17822 z m 29.7832,-6.17676 h -13.43164 v 10.0625 h 15.7002 V 154 h -21.38281 v -32.70312 h 21.22558 v 4.58203 h -15.54297 v 9.02929 h 13.43164 z m 26.00977,0 h -13.43164 v 10.0625 h 15.70019 V 154 h -21.38281 v -32.70312 h 21.22559 v 4.58203 h -15.54297 v 9.02929 h 13.43164 z"
         id="BUGSEE"
         inkscape:connector-curvature="0"
         style="fill:#1e3046" />
    </g>
  </g>
</svg>
